<?xml version="1.0" encoding="UTF-8" standalone="no"?>
<!-- Created with Inkscape (http://www.inkscape.org/) -->
<svg
   xmlns:svg="http://www.w3.org/2000/svg"
   xmlns="http://www.w3.org/2000/svg"
   version="1.0"
   width="120"
   height="272.62137"
   id="svg2864">
  <defs
     id="defs2866">
    <clipPath
       id="clipPath2586">
      <path
         d="M 0,841.89 L 595.276,841.89 L 595.276,0 L 0,0 L 0,841.89 z"
         id="path2588" />
    </clipPath>
  </defs>
  <g
     transform="matrix(3.2621361,0,0,3.2621361,-1153.6687,-1580.1637)"
     id="layer1">
    <g
       transform="matrix(1.25,0,0,-1.25,2.0061518,1472.1592)"
       clip-path="url(#clipPath2586)"
       id="g2584">
      <g
         transform="translate(299.4707,752.8916)"
         id="g2594" />
      <g
         transform="translate(-3.3652931e-6,-2.7707519e-6)"
         id="g3719">
        <g
           transform="translate(260.8652,752.8916)"
           id="g2590"
           style="fill:#ffffff;fill-opacity:1;stroke:none;stroke-opacity:1">
          <rect
             width="29.42857"
             height="66.85714"
             x="20.453386"
             y="-37.319458"
             transform="scale(1,-1)"
             id="rect2887"
             style="opacity:1;fill:#ffffff;fill-opacity:1;fill-rule:nonzero;stroke:none;stroke-width:1;stroke-miterlimit:4;stroke-dasharray:none;stroke-dashoffset:0;stroke-opacity:1" />
        </g>
        <g
           transform="translate(4.4188073e-6,-3.5712893e-7)"
           id="g3713">
          <g
             transform="translate(304.89019,739.03312)"
             id="g2602">
            <path
               d="M 0,0 C 1.178,-1.222 1.223,-2.198 0.8,-2.997 C 0.291,-3.929 -1.092,-4.22 -2.489,-3.71 C -3.333,-4.773 -4.09,-6.534 -4.759,-7.712 C -5.312,-9.197 -4.336,-8.6 -3.376,-9.241 C -2.576,-9.75 -2.227,-10.172 -2.227,-11.001 C -3.667,-13.068 -5.937,-10.084 -6.621,-10.419 C -7.087,-10.71 -7.262,-10.623 -7.756,-10.376 C -7.756,-9.997 -6.709,-7.712 -7.712,-8.062 C -8.266,-8.222 -7.975,-9.444 -8.179,-10.042 C -8.35,-10.649 -8.644,-10.71 -9.575,-10.332 C -10.288,-10.798 -12.224,-12.485 -13.155,-11.351 C -13.956,-9.779 -11.379,-9.022 -10.58,-8.353 C -11.089,-7.247 -11.598,-6.112 -12.151,-5.021 C -14.581,-3.929 -16.488,-1.775 -18.219,0.204 L -13.359,12.734 L -13.155,13.433 L -13.155,18.656 C -13.155,18.788 -13.824,18.7 -13.956,19.413 C -14.072,19.835 -13.665,20.388 -13.243,20.854 L -13.211,21.564 C -14.041,22.289 -13.964,23.426 -13.33,24.056 L -13.402,36.73 C -14.16,36.308 -14.537,36.483 -14.959,37.08 C -16.226,37.08 -16.445,38.797 -16.182,39.06 C -16.013,39.162 -15.929,39.139 -15.899,39.119 C -16.269,40.325 -15.556,40.281 -15.556,40.485 C -15.556,40.951 -15.482,41.779 -14.813,41.954 C -13.542,42.14 -13.649,44 -13.359,45.378 C -13.17,46.286 -12.898,47.086 -12.398,47.191 C -10.085,47.681 -11.938,43.922 -12.127,42.667 C -12.22,42.046 -12.208,41.621 -12.224,40.951 C -11.642,40.747 -11.089,40.747 -10.711,39.933 C -10.435,38.939 -11.125,37.915 -11.601,37.373 L -11.601,36.947 L -11.511,24.896 C -11.152,24.995 -10.82,25.044 -10.464,25.084 L -9.649,28.479 L -10.333,28.479 L -10.333,29.062 L -9.488,29.062 L -7.538,36.571 L -6.796,34.256 L -5.821,37.328 L -4.934,29.062 L -4.06,29.062 L -4.09,28.479 L -4.889,28.479 L -4.599,25.06 C -3.216,24.975 -0.994,24.401 -0.994,23.029 C -0.994,21.842 -2.147,21.416 -2.147,21.416 C -1.124,20.777 -0.152,19.412 -1.601,18.7 C -2.416,18.395 -3.42,18.646 -4.254,18.841 L -4.221,18.613 L -2.955,7.888 C 0.087,5.777 0.713,3.537 0,0 M -12.959,30.618 L -12.009,30.618 L -12.053,33.951 L -12.959,33.951 L -12.959,30.618 z M -12.959,34.461 L -12.053,34.46 L -12.053,36.949 C -12.053,38.079 -11.686,37.284 -11.132,38.797 C -10.288,40.995 -13.534,40.791 -13.824,40.238 C -14.291,39.19 -13.023,39.146 -12.427,39.437 C -12.108,39.685 -12.69,38.637 -13.287,38.841 C -13.287,38.681 -13.49,38.215 -13.956,38.288 C -13.956,37.793 -14.16,37.546 -14.465,37.546 C -14.887,36.818 -13.824,36.73 -13.534,37.152 C -13.359,37.459 -13.002,37.24 -12.959,36.73 L -12.959,34.461 z M -15.979,38.288 C -15.935,37.706 -15.513,37.546 -15.046,37.459 C -14.959,37.546 -14.959,37.589 -14.959,37.662 C -15.31,37.822 -15.672,38.375 -15.891,38.725 C -16.066,38.725 -15.979,38.375 -15.979,38.288 M -15.759,39.656 C -15.759,39.19 -14.799,37.866 -14.494,37.909 C -14.378,37.909 -14.247,38.055 -14.333,38.332 C -14.887,38.681 -15.178,39.467 -15.513,39.933 C -15.759,40.151 -15.759,39.859 -15.759,39.656 M -13.999,38.637 C -13.956,38.593 -13.752,38.797 -13.752,38.884 C -13.795,39.06 -13.999,39.146 -14.028,39.219 C -14.712,40.704 -13.33,40.995 -12.558,40.951 C -12.519,41.598 -12.563,41.858 -12.471,42.54 C -12.241,44.271 -10.877,46.727 -11.889,46.933 C -13.49,47.325 -12.864,42.217 -14.247,41.838 C -15.979,41.417 -15.003,39.19 -13.999,38.637 M -10.667,2.183 L -8.732,3.45 L -9.532,5.603 L -11.424,5.603 L -10.667,2.183 z M -7.305,4.672 L -3.377,7.89 L -3.552,9.562 L -8.979,7.03 L -12.435,14.301 L -12.821,12.689 L -11.686,6.825 L -10.667,9.096 L -9.227,6.563 L -6.665,6.782 L -7.305,4.672 z M -12.282,14.992 L -8.775,7.757 L -3.667,10.114 L -4.643,18.948 C -5.574,19.282 -6.491,19.719 -7.378,20.257 C -7.887,19.748 -10.421,18.697 -11.294,18.697 L -12.282,14.992 z M -7.378,20.811 C -6.155,20.811 -1.31,21.014 -1.31,22.92 C -1.31,24.972 -5.885,24.894 -7.464,24.894 C -8.334,24.894 -13.212,25.265 -13.459,22.98 C -13.459,20.342 -8.906,20.811 -7.378,20.811 M -6.886,-8.527 L -6.346,-8.441 L -6.369,-4.412 L -6.886,-4.686 L -6.886,-8.527 z M -9.345,-8.328 L -8.896,-8.414 L -8.896,-5.282 L -9.345,-5.316 L -9.345,-8.328 z M -8.546,-5.261 L -8.546,-8.309 C -8.546,-8.309 -8.423,-8.106 -8.3,-7.969 C -8.177,-7.833 -8.038,-7.712 -8.038,-7.712 L -8.038,-5.108 L -8.546,-5.261 z M -5.998,-8.222 L -5.458,-7.844 L -5.458,-3.842 L -5.998,-4.231 L -5.998,-8.222 z M -10.042,-7.712 L -9.693,-8.15 L -9.693,-5.344 L -10.042,-5.355 L -10.042,-7.712 z M -7.689,-7.669 C -7.689,-7.669 -7.57,-7.683 -7.43,-7.731 C -7.29,-7.778 -7.235,-7.844 -7.235,-7.844 L -7.235,-4.844 L -7.689,-5.021 L -7.689,-7.669 z M -5.11,-7.465 L -4.686,-6.797 L -4.686,-3.174 L -5.11,-3.551 L -5.11,-7.465 z M -10.391,-7.412 L -10.391,-5.372 L -10.784,-5.33 L -10.784,-6.577 L -10.391,-7.412 z M -4.336,-6.242 L -3.886,-5.355 L -3.886,-2.4 L -4.336,-2.823 L -4.336,-6.242 z M -11.555,-5.195 L -11.132,-6.112 L -11.132,-5.289 L -11.555,-5.195 z M -3.042,-2.779 C -2.866,-2.779 -2.27,-2.575 -2.27,-2.314 L -3.042,-1.528 L -3.657,-2.148 L -3.042,-2.779 z M -3.667,2.227 C -3.973,3.784 -3.827,4.336 -3.42,6.025 C -4.264,4.715 -4.977,3.537 -3.667,2.227 M -8.906,25.744 L -9.91,25.395 L -10.041,25.104 C -10.041,25.104 -8.515,25.144 -7.538,25.144 C -6.574,25.143 -5.064,25.104 -5.064,25.104 L -5.064,25.395 L -5.981,25.744 C -6.112,25.526 -6.491,25.234 -6.796,25.308 C -7.378,25.438 -7.756,28.553 -5.311,27.68 L -5.356,28.479 L -9.104,28.479 L -9.27,27.723 C -7.712,28.479 -7.305,25.481 -8.091,25.308 C -8.31,25.278 -8.556,25.395 -8.906,25.744 M -8.979,29.062 L -5.399,29.062 L -5.443,29.658 L -8.862,29.658 L -8.979,29.062 z M -9.779,25.86 L -8.135,26.486 C -7.8,26.617 -8.266,27.374 -8.6,27.504 C -9.27,27.766 -9.649,26.441 -9.779,25.903 L -9.779,25.86 z M -5.108,25.816 L -5.195,26.704 C -5.312,27.839 -7,28.13 -6.752,26.486 L -5.108,25.816 z"
               id="path2604"
               style="fill:#1a171b;fill-opacity:1;fill-rule:evenodd;stroke:none" />
          </g>
          <g
             transform="matrix(0.4191187,0,0,0.4191187,286.71133,728.76071)"
             id="g2606">
            <path
               d="M 0,0 L 0.416,0 C 0.629,0 0.859,-0.042 0.859,-0.311 C 0.859,-0.63 0.606,-0.643 0.328,-0.643 L 0,-0.643 L 0,0 z M -0.315,-1.768 L 0,-1.768 L 0,-0.897 L 0.333,-0.897 L 0.883,-1.768 L 1.221,-1.768 L 0.643,-0.875 C 0.943,-0.842 1.174,-0.689 1.174,-0.324 C 1.174,0.064 0.948,0.253 0.466,0.253 L -0.315,0.253 L -0.315,-1.768 z M -1.068,-0.75 C -1.068,0.079 -0.449,0.716 0.36,0.716 C 1.161,0.716 1.78,0.079 1.78,-0.75 C 1.78,-1.597 1.161,-2.235 0.36,-2.235 C -0.449,-2.235 -1.068,-1.597 -1.068,-0.75 M -1.383,-0.75 C -1.383,-1.745 -0.588,-2.489 0.36,-2.489 C 1.304,-2.489 2.095,-1.745 2.095,-0.75 C 2.095,0.227 1.304,0.971 0.36,0.971 C -0.588,0.971 -1.383,0.227 -1.383,-0.75"
               id="path2608"
               style="fill:#1a171b;fill-opacity:1;fill-rule:evenodd;stroke:none" />
          </g>
        </g>
      </g>
    </g>
  </g>
</svg>
